<svg width="407" height="207" viewBox="0 0 407 207" fill="none" xmlns="http://www.w3.org/2000/svg">
<path d="M213.641 206.464C320.43 206.464 407 201.412 407 195.181C407 188.95 320.43 183.898 213.641 183.898C106.852 183.898 20.2822 188.95 20.2822 195.181C20.2822 201.412 106.852 206.464 213.641 206.464Z" fill="#EBEBEB"/>
<path d="M2.03993 149.528H47.9975C47.9975 149.528 25.3091 95.8203 12.1913 95.8203C-0.926638 95.8203 2.03993 149.528 2.03993 149.528Z" fill="#263238"/>
<path opacity="0.3" d="M2.03993 149.528H47.9975C47.9975 149.528 25.3091 95.8203 12.1913 95.8203C-0.926638 95.8203 2.03993 149.528 2.03993 149.528Z" fill="black" fill-opacity="0.5"/>
<path d="M107.467 163.221H168.603C168.603 163.221 150.258 96.3154 128.862 96.3154C107.467 96.3154 107.467 163.221 107.467 163.221Z" fill="#263238"/>
<path opacity="0.3" d="M107.467 163.221H168.603C168.603 163.221 150.258 96.3154 128.862 96.3154C107.467 96.3154 107.467 163.221 107.467 163.221Z" fill="black" fill-opacity="0.5"/>
<path d="M285.42 50.8307H281.471C280.89 50.8307 280.033 53.9444 280.033 54.8531C280.033 55.7618 282.467 59.6888 282.73 59.4473C282.992 59.2058 300.391 59.4473 302.949 59.4473C305.508 59.4473 316.779 57.4711 318.238 56.1621C319.698 54.8531 321.046 50.6211 320.88 49.3248C320.714 48.0285 314.933 43.466 309.124 41.6995C303.316 39.933 293.22 40.257 291.284 40.4286C289.347 40.6002 286.229 46.783 285.662 48.0539C285.333 48.947 285.25 49.9009 285.42 50.8307Z" fill="#263238"/>
<path d="M287.211 49.3251C287.335 50.3609 289.811 54.4658 290.806 54.5484C300.487 55.3872 314.809 54.326 319.704 53.913C320.479 52.2164 320.991 50.1639 320.873 49.3315C320.714 48.0288 314.926 43.4727 309.117 41.7062C303.309 39.9397 293.171 40.2574 291.277 40.4353C290.703 40.4798 290.025 41.0708 289.327 41.9096C286.637 46.9486 287.093 48.2894 287.211 49.3251Z" fill="#D0D5DD"/>
<path d="M304.547 54.8592L319.559 54.1856C319.857 53.5665 320.109 52.9296 320.313 52.2793C318.142 52.4064 307.742 52.8194 306.898 53.08C306.054 53.3405 304.547 54.8592 304.547 54.8592Z" fill="#DBDBDB"/>
<path d="M195.399 157.083C195.399 181.668 181.168 201.602 163.59 201.602H140.881V112.564H163.611C181.168 112.564 195.399 132.491 195.399 157.083Z" fill="#37474F" fill-opacity="0.5"/>
<path d="M140.874 201.608C158.426 201.608 172.655 181.673 172.655 157.083C172.655 132.492 158.426 112.558 140.874 112.558C123.321 112.558 109.092 132.492 109.092 157.083C109.092 181.673 123.321 201.608 140.874 201.608Z" fill="#263238"/>
<path d="M140.874 189.592C153.691 189.592 164.081 175.037 164.081 157.083C164.081 139.129 153.691 124.574 140.874 124.574C128.057 124.574 117.667 139.129 117.667 157.083C117.667 175.037 128.057 189.592 140.874 189.592Z" fill="#DBDBDB"/>
<path d="M140.874 187.057C152.69 187.057 162.269 173.637 162.269 157.083C162.269 140.529 152.69 127.109 140.874 127.109C129.058 127.109 119.479 140.529 119.479 157.083C119.479 173.637 129.058 187.057 140.874 187.057Z" fill="#A6A6A6"/>
<path d="M145.369 155.309C144.207 154 143.114 152.348 141.773 150.798C143.045 150.429 143.757 146.026 140.984 140.523C138.723 135.217 132.984 128.818 133.06 128.977C133.902 128.244 134.643 127.418 135.266 126.518C142.478 136.361 142.872 138.413 144.67 139.226C146.053 139.442 147.021 138.896 146.489 126.518C147.996 127.788 149.386 129.021 150.638 130.165C150.52 130.051 150.168 139.239 148.875 144.659C147.747 150.772 145.659 153.111 145.369 155.309Z" fill="#DBDBDB"/>
<path d="M141.268 150.729C139.989 151.885 138.502 152.807 136.953 154.097C137.008 152.546 134.533 149.757 129.754 151.981C125.343 153.474 118.628 159.987 118.6 160.241L118.538 154.929C128.012 147.984 129.284 148.505 130.688 146.217C131.656 144.387 129.485 141.693 123.503 137.753C124.574 136.644 125.546 135.456 126.407 134.201C126.179 134.29 132.804 139.164 135.625 142.665C138.834 146.236 139.968 149.725 141.268 150.729Z" fill="#DBDBDB"/>
<path d="M136.732 154.732C137.098 156.753 137.229 158.996 137.637 161.36C136.593 160.883 133.834 163.234 133.91 170.256C133.585 176.54 136.102 187.47 136.324 187.673C134.795 186.491 133.378 185.303 132.071 184.197C130.598 170.91 131.296 169.195 130.252 166.767C129.367 165.001 127.064 167.263 122.646 173.757C122.258 172.677 121.65 171.674 120.854 170.802C120.917 170.853 126.179 162.541 129.436 159.746C132.88 156.359 135.57 156.295 136.732 154.732Z" fill="#DBDBDB"/>
<path d="M138.004 161.829C139.518 161.931 141.122 162.395 142.893 162.553C141.987 163.888 143.162 167.936 147.27 170.255C150.935 172.797 159.987 174.15 159.945 174.068C158.666 175.478 157.567 176.692 156.702 177.88C149.545 175.161 145.68 173.318 144.165 173.96C143.142 174.824 142.395 175.866 147.706 185.245C146.851 185.975 146.086 186.789 145.424 187.672C145.272 187.367 140.853 178.821 139.518 173.254C137.665 167.116 138.889 163.99 138.004 161.829Z" fill="#DBDBDB"/>
<path d="M143.342 162.204C143.93 160.247 144.788 158.29 145.465 156.002C146.088 157.737 149.282 156.917 152.097 152.387C154.946 148.39 158.32 137.879 158.272 138.191C158.67 139.411 159.254 140.573 160.008 141.641C156.025 150.468 153.784 154.935 153.784 157.089C154.137 158.665 154.476 160.094 163.223 154.966C163.196 156.771 163.168 158.569 163.14 160.361C162.94 160.399 155.81 163.481 151.627 163.539C146.883 164.129 145.113 161.702 143.342 162.204Z" fill="#DBDBDB"/>
<path d="M144.262 161.162C142.513 163.735 139.636 163.913 137.81 161.607C135.985 159.3 135.916 155.316 137.637 152.78C139.359 150.245 142.222 150.01 144.055 152.291C145.887 154.572 146.005 158.588 144.262 161.162Z" fill="#DBDBDB"/>
<path d="M385.633 146.573C385.633 171.158 371.395 191.092 353.823 191.092H331.114V102.035H353.837C371.395 102.035 385.633 121.982 385.633 146.573Z" fill="#37474F" fill-opacity="0.5"/>
<path d="M331.107 191.098C348.66 191.098 362.889 171.163 362.889 146.573C362.889 121.982 348.66 102.047 331.107 102.047C313.555 102.047 299.326 121.982 299.326 146.573C299.326 171.163 313.555 191.098 331.107 191.098Z" fill="#263238"/>
<path d="M331.107 179.082C343.924 179.082 354.314 164.527 354.314 146.573C354.314 128.619 343.924 114.064 331.107 114.064C318.291 114.064 307.9 128.619 307.9 146.573C307.9 164.527 318.291 179.082 331.107 179.082Z" fill="#DBDBDB"/>
<path d="M331.108 176.546C342.924 176.546 352.503 163.127 352.503 146.573C352.503 130.019 342.924 116.599 331.108 116.599C319.291 116.599 309.712 130.019 309.712 146.573C309.712 163.127 319.291 176.546 331.108 176.546Z" fill="#A6A6A6"/>
<path d="M335.602 144.8C334.434 143.491 333.341 141.839 331.999 140.288C333.279 139.92 333.984 135.516 331.218 130.013C328.95 124.707 323.21 118.309 323.293 118.467C324.135 117.736 324.876 116.912 325.499 116.015C332.712 125.858 333.106 127.91 334.904 128.723C336.287 128.939 337.248 128.393 336.716 116.015C338.23 117.286 339.613 118.518 340.865 119.662C340.747 119.548 340.394 128.736 339.101 134.156C337.981 140.263 335.886 142.601 335.602 144.8Z" fill="#DBDBDB"/>
<path d="M331.515 140.218C330.236 141.381 328.715 142.302 327.2 143.586C327.256 142.035 324.78 139.245 320.002 141.47C315.59 142.963 308.875 149.476 308.848 149.73C308.848 147.964 308.806 146.191 308.779 144.424C318.259 137.473 319.532 137.994 320.928 135.706C321.903 133.876 319.732 131.182 313.751 127.242C314.822 126.132 315.793 124.944 316.655 123.69C316.427 123.779 323.044 128.659 325.866 132.154C329.067 135.712 330.208 139.214 331.515 140.218Z" fill="#DBDBDB"/>
<path d="M326.965 144.222C327.325 146.243 327.463 148.486 327.864 150.85C326.82 150.373 324.061 152.724 324.144 159.746C323.819 166.03 326.329 176.96 326.557 177.163C325.022 175.981 323.612 174.799 322.305 173.687C320.832 160.4 321.523 158.685 320.486 156.257C319.601 154.491 317.298 156.753 312.879 163.247C312.489 162.166 311.879 161.164 311.081 160.292C311.151 160.343 316.413 152.032 319.67 149.236C323.114 145.881 325.797 145.785 326.965 144.222Z" fill="#DBDBDB"/>
<path d="M328.238 151.319C329.752 151.421 331.356 151.891 333.127 152.044C332.221 153.378 333.396 157.426 337.497 159.745C341.169 162.287 350.214 163.647 350.179 163.558C348.893 164.969 347.8 166.182 346.929 167.371C339.779 164.651 335.906 162.808 334.399 163.45C333.369 164.314 332.629 165.356 337.939 174.735C337.086 175.467 336.321 176.281 335.657 177.163C335.505 176.864 331.087 168.311 329.752 162.751C327.892 156.613 329.123 153.505 328.238 151.319Z" fill="#DBDBDB"/>
<path d="M333.59 151.694C334.178 149.737 335.028 147.78 335.713 145.492C336.335 147.227 339.53 146.407 342.344 141.876C345.193 137.879 348.568 127.369 348.52 127.681C348.914 128.902 349.499 130.064 350.255 131.131C346.272 139.957 344.032 144.424 344.032 146.579C344.384 148.154 344.723 149.584 353.464 144.456C353.464 146.261 353.438 148.059 353.388 149.851C353.187 149.896 346.058 152.971 341.867 153.028C337.13 153.619 335.346 151.192 333.59 151.694Z" fill="#DBDBDB"/>
<path d="M334.496 150.652C332.746 153.225 329.863 153.403 328.044 151.103C326.225 148.803 326.149 144.806 327.871 142.27C329.593 139.735 332.449 139.506 334.288 141.781C336.128 144.056 336.231 148.091 334.496 150.652Z" fill="#DBDBDB"/>
<path d="M54.9885 146.661C54.9885 166.004 49.4979 181.68 42.7212 181.68H18.2003V111.642H42.7212C49.4979 111.642 54.9885 127.318 54.9885 146.661Z" fill="#37474F" fill-opacity="0.5"/>
<path d="M18.2003 181.68C24.9754 181.68 30.4677 166.002 30.4677 146.661C30.4677 127.321 24.9754 111.642 18.2003 111.642C11.4253 111.642 5.93298 127.321 5.93298 146.661C5.93298 166.002 11.4253 181.68 18.2003 181.68Z" fill="#263238"/>
<path d="M18.2004 172.231C23.1461 172.231 27.1554 160.783 27.1554 146.661C27.1554 132.539 23.1461 121.091 18.2004 121.091C13.2547 121.091 9.24536 132.539 9.24536 146.661C9.24536 160.783 13.2547 172.231 18.2004 172.231Z" fill="#DBDBDB"/>
<path d="M18.2002 170.236C22.7602 170.236 26.4568 159.682 26.4568 146.662C26.4568 133.642 22.7602 123.087 18.2002 123.087C13.6402 123.087 9.9436 133.642 9.9436 146.662C9.9436 159.682 13.6402 170.236 18.2002 170.236Z" fill="#A6A6A6"/>
<path d="M19.9361 145.244C19.4866 144.215 19.0648 142.912 18.5531 141.692C19.0441 141.4 19.3138 137.937 18.2488 133.609C17.5111 130.509 16.4886 127.471 15.1924 124.529C15.5386 123.908 15.8233 123.259 16.0429 122.591C18.809 130.337 18.968 131.951 19.6734 132.58C20.2127 132.751 20.5792 132.326 20.3649 122.591C20.9457 123.588 21.4851 124.561 21.9761 125.463C21.9277 125.374 21.7963 132.605 21.2846 136.863C20.8489 141.698 20.0468 143.541 19.9361 145.244Z" fill="#DBDBDB"/>
<path d="M18.3524 141.66C17.8614 142.575 17.2736 143.3 16.6859 144.316C16.6859 143.096 15.7523 140.898 13.9198 142.645C12.2187 143.821 9.62557 148.942 9.61865 149.165C9.61865 147.771 9.61865 146.379 9.61865 144.99C13.2767 139.525 13.7677 139.906 14.3071 138.134C14.6805 136.691 13.8438 134.575 11.541 131.481C11.9752 130.568 12.3493 129.632 12.6613 128.678C12.5783 128.754 15.13 132.586 16.2225 135.344C17.4119 138.127 17.8545 140.872 18.3524 141.66Z" fill="#DBDBDB"/>
<path d="M16.603 144.812C16.7413 146.401 16.7897 148.167 16.9487 150.029C16.5476 149.648 15.4827 151.503 15.5104 157.019C15.5329 161.598 15.8446 166.173 16.4439 170.719C15.8492 169.785 15.3098 168.857 14.805 167.98C14.2311 157.533 14.5008 156.18 14.1135 154.274C13.7747 152.882 12.8826 154.661 11.1885 159.77C11.0573 158.973 10.8252 158.192 10.4969 157.445C10.4969 157.483 12.5715 150.931 13.8093 148.752C15.1162 146.089 16.1881 146.045 16.603 144.812Z" fill="#DBDBDB"/>
<path d="M17.0939 150.398C17.6747 150.474 18.2971 150.843 18.9748 150.97C18.629 152.012 19.0854 155.202 20.669 157.019C22.052 159.015 25.5718 160.088 25.5579 160.019C25.067 161.131 24.6382 162.084 24.3063 162.999C21.5403 160.864 20.0535 159.408 19.4657 159.917C19.0647 160.597 18.7742 161.429 20.8488 168.813C20.5019 169.426 20.2082 170.064 19.9705 170.719C19.9083 170.478 18.2072 163.729 17.6886 159.377C16.9625 154.554 17.4327 152.095 17.0939 150.398Z" fill="#DBDBDB"/>
<path d="M19.1545 150.69C19.3758 149.152 19.7077 147.615 19.9705 145.81C20.2125 147.176 21.4434 146.534 22.5291 142.97C23.6286 139.824 24.9425 131.532 24.9148 131.805C25.0629 132.725 25.2942 133.633 25.6063 134.518C24.0642 141.457 23.1929 144.971 23.1999 146.668C23.3382 147.907 23.4695 149.032 26.8372 144.997C26.8372 146.412 26.8372 147.826 26.8372 149.241C26.7611 149.241 24.0089 151.694 22.3908 151.783C20.5237 152.234 19.8322 150.328 19.1545 150.69Z" fill="#DBDBDB"/>
<path d="M19.5073 149.871C18.8158 151.898 17.7163 152.038 17.0179 150.22C16.3064 147.954 16.2825 145.552 16.9488 143.275C17.6403 141.267 18.719 141.102 19.4244 142.894C20.1479 145.168 20.1767 147.582 19.5073 149.871Z" fill="#DBDBDB"/>
<path d="M244.454 146.661C244.454 166.004 238.964 181.68 232.187 181.68H207.666V111.642H232.187C238.964 111.642 244.454 127.318 244.454 146.661Z" fill="#37474F" fill-opacity="0.5"/>
<path d="M207.667 181.68C214.442 181.68 219.934 166.002 219.934 146.661C219.934 127.321 214.442 111.642 207.667 111.642C200.891 111.642 195.399 127.321 195.399 146.661C195.399 166.002 200.891 181.68 207.667 181.68Z" fill="#263238"/>
<path d="M207.666 172.231C212.612 172.231 216.621 160.783 216.621 146.661C216.621 132.539 212.612 121.091 207.666 121.091C202.721 121.091 198.711 132.539 198.711 146.661C198.711 160.783 202.721 172.231 207.666 172.231Z" fill="#DBDBDB"/>
<path d="M207.667 170.236C212.226 170.236 215.923 159.682 215.923 146.662C215.923 133.642 212.226 123.087 207.667 123.087C203.107 123.087 199.41 133.642 199.41 146.662C199.41 159.682 203.107 170.236 207.667 170.236Z" fill="#A6A6A6"/>
<path d="M209.395 145.244C208.946 144.215 208.524 142.912 208.012 141.692C208.503 141.4 208.773 137.937 207.708 133.609C206.967 130.509 205.944 127.472 204.651 124.529C204.998 123.908 205.282 123.259 205.502 122.591C208.268 130.337 208.42 131.951 209.126 132.58C209.672 132.751 210.031 132.326 209.817 122.591C210.398 123.588 210.93 124.561 211.428 125.463C211.38 125.374 211.248 132.605 210.737 136.863C210.315 141.698 209.506 143.541 209.395 145.244Z" fill="#DBDBDB"/>
<path d="M207.818 141.66C207.321 142.575 206.733 143.3 206.152 144.316C206.152 143.096 205.218 140.898 203.386 142.645C201.685 143.821 199.092 148.942 199.085 149.165C199.085 147.773 199.085 146.382 199.085 144.99C202.743 139.525 203.234 139.906 203.773 138.134C204.147 136.691 203.31 134.575 201.007 131.481C201.438 130.567 201.812 129.631 202.127 128.678C202.037 128.754 204.596 132.586 205.689 135.344C206.878 138.127 207.314 140.872 207.818 141.66Z" fill="#DBDBDB"/>
<path d="M206.069 144.812C206.207 146.401 206.256 148.167 206.415 150.029C206.014 149.648 204.949 151.503 204.976 157.019C204.999 161.598 205.311 166.173 205.91 170.719C205.315 169.785 204.769 168.857 204.264 167.98C203.697 157.533 203.967 156.18 203.573 154.274C203.234 152.882 202.342 154.661 200.648 159.77C200.513 158.974 200.281 158.193 199.956 157.445C199.956 157.483 202.031 150.931 203.268 148.752C204.582 146.089 205.613 146.045 206.069 144.812Z" fill="#DBDBDB"/>
<path d="M206.553 150.398C207.141 150.474 207.756 150.843 208.441 150.97C208.095 152.012 208.545 155.202 210.128 157.019C211.546 159.015 215.038 160.088 215.024 160.019C214.526 161.131 214.104 162.084 213.772 162.999C211.006 160.864 209.52 159.408 208.932 159.917C208.538 160.597 208.24 161.429 210.315 168.813C209.965 169.426 209.67 170.063 209.43 170.719C209.374 170.478 207.666 163.729 207.155 159.377C206.422 154.554 206.899 152.095 206.553 150.398Z" fill="#DBDBDB"/>
<path d="M208.614 150.69C208.842 149.152 209.174 147.615 209.437 145.81C209.679 147.176 210.91 146.534 211.995 142.97C213.095 139.824 214.402 131.532 214.381 131.805C214.533 132.725 214.764 133.632 215.072 134.518C213.537 141.457 212.666 144.971 212.673 146.668C212.804 147.907 212.943 149.032 216.31 144.997C216.31 146.414 216.31 147.831 216.31 149.241C216.227 149.241 213.482 151.694 211.864 151.783C209.99 152.234 209.298 150.328 208.614 150.69Z" fill="#DBDBDB"/>
<path d="M208.973 149.871C208.282 151.898 207.182 152.038 206.484 150.22C205.772 147.954 205.748 145.552 206.415 143.275C207.106 141.267 208.185 141.102 208.89 142.894C209.614 145.168 209.643 147.582 208.973 149.871Z" fill="#DBDBDB"/>
<path d="M0.0206299 148.956C0.0206299 148.956 0.145101 104.888 2.09515 90.4953C4.0452 76.1026 7.71019 68.9349 8.54 68.0198C9.36981 67.1048 12.689 60.5788 13.8231 58.7615C14.9572 56.9441 21.4297 52.0767 21.9207 51.3205C22.4116 50.5643 32.7358 33.2931 34.2295 30.745C34.8104 29.76 35.3013 26.4176 36.546 24.6702C37.7908 22.9227 45.8814 17.763 62.8233 11.6882C79.7652 5.61336 102.723 3.491 109.154 3.10973C115.585 2.72847 219.201 2.2773 238.694 6.45214C258.188 10.627 305.259 50.8376 310.411 54.2816C311.316 54.8853 340.975 58.914 349.737 62.8601C354.765 65.1012 359.617 67.6619 364.258 70.5235C364.258 70.5235 374.755 83.963 375.08 84.3443C375.405 84.7255 379.872 88.4428 380.453 89.8853C381.034 91.3277 383.178 100.516 383.593 101.425C384.008 102.334 387.479 109.686 387.742 112.507C388.005 115.328 387.742 125.851 387.742 126.328C387.742 126.804 389.069 133.464 389.069 138.096C389.069 142.728 388.157 161.607 388.157 162.878C388.157 164.149 166.494 168.877 165.339 168.597C164.184 168.318 158.763 100.764 125.059 100.764C109.694 100.764 103.47 124.758 108.76 163.17L35.004 154.211C35.004 154.211 24.991 96.6654 10.656 101.336C2.8973 103.878 0.172758 122.42 0.919586 149.248L0.0206299 148.956Z" fill="#D0D5DD"/>
<path d="M389.104 138.058C389.104 142.696 388.191 161.601 388.191 162.84C388.191 164.079 166.536 168.838 165.374 168.559C164.212 168.279 158.77 100.764 125.059 100.764C109.687 100.764 103.477 124.752 108.76 163.164L35.011 154.204C35.011 154.204 24.9911 96.6652 10.6561 101.336C2.89742 103.877 0.165963 122.426 0.919706 149.248L0 148.955C0 148.955 0.131386 104.881 2.07452 90.4569C4.01766 76.0325 7.69648 68.8965 8.52628 67.9878C9.35609 67.0791 12.6753 60.5532 13.8094 58.7295C14.9435 56.9058 21.416 52.0446 21.9069 51.2885C22.0028 51.151 22.0905 51.0089 22.1697 50.8627C23.8708 48.0732 32.8397 33.0704 34.2158 30.7193C34.7966 29.7217 35.2876 26.3856 36.5323 24.6382C37.777 22.8907 45.8677 17.7309 62.8096 11.6561C79.7515 5.58134 102.716 3.45897 109.141 3.08407C115.565 2.70916 219.187 2.24529 238.688 6.41377C258.188 10.5822 305.245 50.8055 310.397 54.2496C311.303 54.8851 340.961 58.882 349.716 62.8217C354.744 65.0658 359.596 67.6285 364.238 70.4914C364.238 70.4914 374.735 83.931 375.06 84.3059C375.385 84.6808 379.852 88.4108 380.433 89.8532C381.014 91.2957 383.164 100.478 383.572 101.393C383.98 102.308 387.451 109.654 387.721 112.481C387.991 115.309 387.721 125.825 387.721 126.289C387.721 126.753 389.104 133.432 389.104 138.058Z" fill="#D0D5DD"/>
<path opacity="0.1" d="M389.104 138.058C389.104 142.696 388.191 161.601 388.191 162.84C388.191 164.079 166.536 168.838 165.374 168.559C164.212 168.279 158.77 100.764 125.059 100.764C109.687 100.764 103.477 124.752 108.76 163.164L35.011 154.204C35.011 154.204 24.9911 96.6652 10.6561 101.336C2.89742 103.877 0.165963 122.426 0.919706 149.248L0 148.956C0 148.956 0.131386 104.881 2.07452 90.457C4.01766 76.0325 7.69648 68.8966 8.52628 67.9879C9.35609 67.0792 12.6753 60.5532 13.8094 58.7295C14.9435 56.9058 21.416 52.0447 21.9069 51.2885C22.0028 51.151 22.0905 51.0089 22.1697 50.8628L116.215 58.0814L134.062 56.1433C134.062 56.1433 232.457 74.7108 240.555 75.5051C248.652 76.2994 356.963 74.1389 360.061 73.567C360.978 73.387 361.839 73.0161 362.576 72.483C363.313 71.9499 363.907 71.2686 364.314 70.4915C364.314 70.4915 374.811 83.931 375.136 84.306C375.461 84.6809 379.928 88.4109 380.509 89.8533C381.09 91.2958 383.24 100.478 383.648 101.393C384.056 102.308 387.528 109.654 387.797 112.481C388.067 115.309 387.797 125.826 387.797 126.289C387.797 126.753 389.104 133.432 389.104 138.058Z" fill="black" fill-opacity="0.5"/>
<path opacity="0.1" d="M35.011 154.23C35.011 154.23 38.9733 111.808 45.1692 103.839C51.3651 95.8709 92.6343 100.408 97.2259 105.657C102.799 112.011 105.738 162.846 105.738 162.846L35.011 154.23Z" fill="black" fill-opacity="0.5"/>
<path d="M134.145 56.143C134.145 56.143 125.571 26.4871 117.667 11.0268C116.671 9.12052 213.42 4.77411 251.376 11.0268C255.449 11.694 276.755 24.7205 312.969 54.3002C313.716 54.9357 291.159 53.7283 234.027 53.9571C176.894 54.1858 136.628 56.3718 134.145 56.143Z" fill="#263238"/>
<path d="M137.575 54.0905C137.575 54.0905 129.326 26.5697 121.719 12.2469C120.765 10.4486 215.328 6.43898 251.847 12.2469C255.761 12.8823 274.77 24.9557 309.609 52.4003C310.3 52.9595 288.621 51.8729 233.667 52.0826C178.713 52.2923 139.968 54.3002 137.575 54.0905Z" fill="#37474F" fill-opacity="0.5"/>
<path opacity="0.4" d="M301.933 52.5152C293.081 49.338 280.759 44.8899 263.596 38.7325C211.802 20.1968 157.622 23.9458 127.3 24.5686C126.117 21.3405 122.888 14.4587 121.719 12.2411C120.765 10.4491 215.322 6.44585 251.847 12.2411C255.761 12.8765 274.77 24.9498 309.609 52.4008C309.851 52.5914 307.444 52.5914 301.933 52.5152Z" fill="#455A64" fill-opacity="0.5"/>
<path d="M124.271 55.6924C124.914 55.3365 118.344 24.3843 110.06 16.1363C99.9849 6.09635 62.927 17.2547 48.3501 24.0348C47.6931 24.3334 38.0812 35.0215 37.8945 35.4727C37.7078 35.9239 37.279 44.1274 38.4546 46.9106C39.5024 49.323 41.489 51.2913 44.0281 52.4326C45.8883 53.1697 107.17 59.3779 109.528 59.4224C111.886 59.4669 123.655 56.0291 124.271 55.6924Z" fill="#263238"/>
<path d="M116.395 36.2989C114.624 28.7371 110.807 21.2008 107.28 17.7822C97.7999 8.58102 62.9341 18.8052 49.1939 25.0135C48.5784 25.2931 39.5128 35.0852 39.3537 35.5046C39.1947 35.924 39.0425 42.8121 40.1489 45.3666C41.1483 47.6027 43.02 49.4155 45.3975 50.4501C47.147 51.1237 104.667 56.7155 106.866 56.4232C108.041 56.2834 116.768 37.9065 116.395 36.2989Z" fill="#37474F" fill-opacity="0.5"/>
<path opacity="0.4" d="M112.155 24.8162C80.2839 24.6256 55.9774 33.6234 39.3467 40.7022C39.1968 38.9786 39.1968 37.2469 39.3467 35.5233C39.5265 35.104 48.5714 25.3118 49.1868 25.0386C62.8994 18.824 97.7652 8.59978 107.273 17.7946C109.275 19.897 110.92 22.264 112.155 24.8162Z" fill="#455A64" fill-opacity="0.5"/>
<path d="M41.2759 48.715C41.4211 48.1558 46.5313 38.7386 48.3085 35.5487C50.0857 32.3588 57.6439 21.2005 57.8928 21.1242C58.1417 21.048 60.5551 19.8978 60.403 20.2537C60.2508 20.6095 51.1644 34.4176 50.5352 35.7902C49.5878 37.8553 43.8483 50.6404 43.8483 50.6404L41.2759 48.715Z" fill="#263238"/>
<path d="M69.8905 53.5695C69.8905 53.5695 72.7395 41.3182 75.471 33.1782C77.7453 26.8131 80.4972 20.6006 83.7068 14.5853C83.8313 14.5281 89.6607 13.8164 89.8405 13.8164C90.0203 13.8164 83.3818 28.0693 81.7291 32.816C80.0764 37.5628 77.4902 54.3765 77.3588 54.3765C77.2274 54.3765 70.4091 53.633 69.8905 53.5695Z" fill="#263238"/>
<path opacity="0.2" d="M86.3138 14.6304C84.993 17.8076 83.6308 20.9848 82.2685 24.1238C81.1137 26.9261 79.1913 30.7896 78.3615 33.6554C76.7019 39.3744 75.1183 47.7367 73.8252 53.5955C74.78 46.8475 76.1257 40.151 77.8567 33.5347C80.1871 27.0659 83.3887 20.9149 86.3138 14.6558V14.6304Z" fill="black" fill-opacity="0.5"/>
<path opacity="0.2" d="M58.6743 21.1621C56.2541 25.1145 52.6029 30.7763 50.0443 34.7414C47.6863 38.6494 44.9064 44.9085 42.8112 48.988C44.9894 44.1396 47.0432 39.2149 49.7262 34.5953C52.3263 30.6302 56.0051 25.0192 58.6605 21.1621H58.6743Z" fill="black" fill-opacity="0.5"/>
<path d="M355.559 88.8682C356.762 89.1033 364.313 96.2329 364.313 97.2941C364.313 98.3553 351.569 121.587 346.797 124.91C342.026 128.234 271.423 128.087 269.639 127.643C267.855 127.198 243.362 102.282 242.871 100.319C242.38 98.3553 252.621 90.5966 254.108 90.4504C255.595 90.3043 352.087 88.1819 355.559 88.8682Z" fill="#263238"/>
<path d="M364.314 97.2941C364.314 97.6372 363.007 100.243 361.07 103.75C360.206 105.332 359.21 107.093 358.152 108.91C356.921 111.007 355.608 113.174 354.294 115.233C353.201 116.948 352.115 118.581 351.085 120.011C349.405 122.356 347.897 124.16 346.798 124.929C342.006 128.272 271.423 128.107 269.632 127.662C269.058 127.509 266.209 124.917 262.565 121.365C261.078 119.916 259.453 118.302 257.801 116.637C255.899 114.731 253.97 112.742 252.144 110.842C250.319 108.942 248.548 107.061 247.089 105.466C244.655 102.797 242.996 100.827 242.871 100.325C242.834 100.045 242.9 99.7605 243.058 99.5181C243.701 98.2472 245.824 96.2901 248.009 94.4981C250.616 92.3821 253.389 90.533 254.101 90.4567C255.595 90.3042 352.088 88.1819 355.559 88.8681C356.168 88.9825 358.394 90.8634 360.448 92.8333C362.184 94.4918 363.795 96.2011 364.21 96.9827C364.268 97.0787 364.303 97.1848 364.314 97.2941Z" fill="#263238"/>
<path d="M364.21 96.9834C360.386 97.5553 352.682 98.6673 351.016 98.7372C348.782 98.8262 264.64 100.192 261.542 100.084C259.363 100.002 249.032 99.6967 243.058 99.5188C243.701 98.2479 245.824 96.2908 248.009 94.4989C253.257 95.0072 259.626 95.5283 260.553 95.5283C262.033 95.5283 347.296 94.6386 349.405 94.6196C350.788 94.6196 356.624 93.552 360.469 92.834C362.184 94.4925 363.795 96.2018 364.21 96.9834Z" fill="#37474F" fill-opacity="0.5"/>
<path d="M361.07 103.75C360.206 105.333 359.21 107.093 358.152 108.91C355.026 109.342 351.991 109.736 351.016 109.781C348.782 109.876 264.64 111.236 261.542 111.122C260.297 111.077 256.383 110.956 252.144 110.842C250.284 108.936 248.548 107.061 247.089 105.466C252.49 105.987 259.536 106.565 260.553 106.565C262.033 106.565 347.295 105.682 349.405 105.67C350.877 105.663 357.302 104.469 361.07 103.75Z" fill="#37474F" fill-opacity="0.5"/>
<path d="M354.294 115.232C353.201 116.948 352.115 118.581 351.085 120.011H351.016C348.893 120.094 272.716 121.339 262.565 121.358C261.078 119.909 259.453 118.295 257.801 116.63C259.184 116.732 260.221 116.802 260.567 116.802C262.047 116.802 347.309 115.906 349.418 115.9C351.056 115.761 352.683 115.538 354.294 115.232Z" fill="#37474F" fill-opacity="0.5"/>
<path d="M0.933386 149.248C0.933386 149.248 -0.912939 96.1378 9.57722 91.2958C20.0674 86.4537 26.6644 102.098 30.4607 111.63C34.2571 121.161 37.7354 136.679 38.4753 136.831C39.2152 136.984 105.724 146.02 106.056 145.944C106.388 145.867 105.517 98.9528 121.014 91.3593C135.003 84.5029 146.876 98.5842 154.303 110.187C164.081 125.438 171.756 158.538 172.068 158.538C175.414 158.538 237.007 157.712 237.622 157.597C238.238 157.483 256.985 145.753 258.568 145.524C260.152 145.295 356.589 142.449 358.574 142.449C360.559 142.449 374.064 153.385 374.686 153.385C375.308 153.385 388.897 153.099 389.104 153.156C389.311 153.213 389.062 163.062 388.814 163.291C388.565 163.52 164.074 170.529 164.212 169.55C164.35 168.572 154.531 134.061 144.158 115.233C135.978 100.395 120.737 93.5134 115.157 115.01C109.624 136.259 109.355 162.833 108.732 163.177C108.11 163.52 36.3455 155.284 34.9763 154.217C33.6071 153.149 25.558 101.037 12.1565 101.266C-1.24486 101.495 1.99139 149.515 1.99139 149.515L0.933386 149.248Z" fill="#263238"/>
<path d="M370.786 136.348C371.519 136.189 386.621 129.994 387.202 128.945C387.783 127.897 387.818 117.329 387.202 117.444C386.587 117.558 375.772 126.124 375.08 126.867C374.389 127.611 369.617 136.564 370.786 136.348Z" fill="#263238"/>
<path d="M371.712 138.763C371.512 138.223 387.105 133.044 387.617 132.955C388.129 132.866 388.779 139.729 388.309 140.326C387.838 140.923 377.03 142.747 376.166 142.518C375.301 142.29 372.079 139.786 371.712 138.763Z" fill="#263238"/>
<path d="M40.0449 128.679L102.177 137.454C102.177 137.454 98.8714 132.822 95.566 131.303C92.2606 129.784 57.1459 121.282 50.6181 121.663C44.0902 122.045 40.0449 128.679 40.0449 128.679Z" fill="#D0D5DD"/>
<path d="M3.52661 99.7978C3.52661 99.7978 4.90962 87.502 10.3864 84.2359C16.2365 80.7282 21.6234 84.9158 26.0836 93.1955C29.7002 99.8994 33.1923 116.122 33.1923 116.122C33.1923 116.122 26.457 96.3791 18.3525 90.4187C16.9499 89.3726 15.1776 88.8373 13.3731 88.9146C11.5687 88.992 9.85824 89.6766 8.5677 90.8381C5.12399 94.0915 3.52661 99.7978 3.52661 99.7978Z" fill="#D0D5DD"/>
<path d="M23.525 59.46C31.6226 60.3941 57.561 65.1789 68.964 67.6063C80.3669 70.0337 113.822 77.9894 113.822 77.9894C113.822 77.9894 105.807 79.2221 103.823 79.1586C101.838 79.095 46.1581 70.3577 42.6106 69.824C39.0632 69.2902 23.525 59.46 23.525 59.46Z" fill="#D0D5DD"/>
<g opacity="0.1">
<path d="M164.219 69.8114C157.885 68.8455 151.606 67.6191 145.348 66.3038C141.662 65.4078 137.845 64.7723 134.318 63.3871C134.166 63.3172 133.889 63.152 133.924 62.9169V62.7771L133.972 60.5657C134.028 59.0915 134.062 57.6173 134.138 56.1177C134.214 57.5919 134.249 59.0661 134.311 60.5657C134.311 60.6865 134.353 62.9232 134.366 62.9741C134.38 63.0249 134.332 62.8978 134.366 62.9169C134.582 63.043 134.815 63.1434 135.058 63.2155C138.474 64.2195 141.973 64.9249 145.5 65.6874C150.79 66.8312 159.005 68.5913 164.212 69.8114H164.219Z" fill="black" fill-opacity="0.5"/>
<path d="M39.6372 49.3247C36.6222 52.5718 33.5104 55.7744 30.4125 58.9707C30.3018 59.0914 29.8593 59.5362 29.7625 59.6379C29.7118 59.7515 29.6702 59.8683 29.638 59.9874C29.2784 61.1503 29.3061 62.3703 28.8566 63.5395C27.3195 65.721 25.9091 67.9757 24.6315 70.2942C24.2373 71.0059 24.265 72.2005 24.1267 73.0012C23.4352 78.4406 22.5362 84.5154 21.6234 89.9293C22.1628 84.1659 23.0064 77.2968 23.6564 71.5016C23.671 70.9975 23.7932 70.5009 24.016 70.0401C24.9023 68.3055 25.9238 66.6321 27.0725 65.0328C27.3422 64.6515 28.0475 63.6158 28.2965 63.2409C28.7114 62.0589 28.7044 60.6991 29.1954 59.4282C29.2779 59.2914 29.3828 59.1671 29.5066 59.0597C32.8535 55.7808 36.2073 52.5019 39.6372 49.2866V49.3247Z" fill="black" fill-opacity="0.5"/>
<path d="M70.2778 55.5708C68.3692 58.748 65.4372 62.9165 63.8675 66.1826C63.8675 67.5679 64.0127 70.0461 64.0542 71.4568C64.1342 72.5293 64.0972 73.6064 63.9436 74.6721C63.6057 75.5209 63.3285 76.389 63.1138 77.271C62.36 80.086 61.5717 82.9455 61.0392 85.805C60.8456 87.8257 60.8041 98.196 60.7488 100.42C60.5344 95.5272 60.2509 90.6534 60.4445 85.7542C60.9217 82.8311 61.6685 79.9971 62.4084 77.1249C62.6384 76.223 62.9318 75.3358 63.2866 74.4688C63.4087 73.4774 63.4434 72.4787 63.3904 71.4822C63.3904 70.0334 63.2313 67.5806 63.2866 66.1509C65.0776 62.5034 67.9059 58.9513 70.2432 55.5835L70.2778 55.5708Z" fill="black" fill-opacity="0.5"/>
<path d="M117.66 56.9185C116.387 60.1656 113.801 66.6598 112.487 69.8941C111.651 72.0483 110.71 74.2278 109.956 76.3566C109.855 76.8999 109.825 77.4524 109.867 78.0023C109.908 79.0572 110.039 80.417 110.005 81.4782C109.223 84.2614 108.56 87.1018 107.999 89.9422C107.564 92.2489 107.813 94.4856 107.612 96.7923C107.419 101.393 107.19 105.993 106.886 110.594L106.955 103.68C107.011 100.459 107.149 94.7843 107.156 91.6071C107.534 88.7233 108.099 85.8629 108.85 83.0414C108.97 82.5406 109.12 82.0463 109.299 81.5608C109.299 81.5608 109.299 81.4718 109.299 81.4274C109.334 80.4679 109.216 78.9873 109.189 78.0023C108.988 76.2485 109.998 74.5328 110.572 72.9188C112.817 67.5388 115.159 62.1969 117.598 56.8931L117.66 56.9185Z" fill="black" fill-opacity="0.5"/>
</g>
<path d="M184.708 115.379C184.708 115.379 228.163 123.265 234.773 126.537C241.384 129.81 251.791 135.713 251.791 135.713H316.731C349.923 135.713 362.004 131.748 362.004 131.748C362.004 131.748 371.754 117.476 374.23 115.347C376.705 113.219 385.633 108.307 385.633 108.307C385.633 108.307 385.633 110.963 384.146 112.551C382.659 114.14 377.231 117.635 376.048 118.842C374.866 120.05 366.962 134.493 366.782 135.078C366.602 135.662 366.45 139.024 365.62 139.481C364.791 139.939 250.139 143.122 247.981 142.519C245.824 141.915 232.284 131.716 228.619 130.674C224.954 129.632 186.32 119.586 186.32 119.586L184.708 115.379Z" fill="#D0D5DD"/>
<path d="M176.943 131.901C177.109 130.687 185.365 120.056 186.361 119.599C187.357 119.141 228.329 129.994 230.804 130.63C233.28 131.265 240.554 137.829 240.554 138.433C240.554 139.037 176.943 131.901 176.943 131.901Z" fill="#263238"/>
<path d="M178.264 135.764C178.049 135.084 239.068 142.995 239.234 143.605C239.4 144.215 231.136 149.375 229.483 149.375C227.831 149.375 191.319 147.398 189.169 146.337C187.018 145.276 178.761 137.339 178.264 135.764Z" fill="#263238"/>
<path d="M51.0747 16.3076C51.0747 16.3076 69.0885 5.56228 90.0273 1.69246C110.966 -2.17737 117.902 1.62256 119.762 2.9125C121.622 4.20244 124.305 8.94282 124.305 8.94282L118.649 9.57826C118.649 9.57826 116.298 4.34224 107.868 3.54159C101.804 2.93792 70.2779 6.58534 51.0747 16.3076Z" fill="#263238"/>
<path d="M251.377 11.0527C251.377 11.0527 242.622 4.17725 234.607 2.84283C226.593 1.50841 200.489 3.70068 200.489 3.70068C200.489 3.70068 221.987 3.64984 232.215 5.34011C238.736 6.42036 246.778 10.3791 246.778 10.3791L251.377 11.0527Z" fill="#263238"/>
<path d="M112.308 50.8307H116.256C116.83 50.8307 117.695 53.9444 117.695 54.8531C117.695 55.7618 115.26 59.6888 114.998 59.4473C114.735 59.2058 97.3365 59.4473 94.7711 59.4473C92.2056 59.4473 80.9409 57.4711 79.4887 56.1621C78.0366 54.8531 76.6812 50.6211 76.8472 49.3248C77.0132 48.0285 82.7942 43.466 88.6028 41.6995C94.4115 39.933 104.549 40.257 106.451 40.4286C108.352 40.6002 111.506 46.783 112.066 48.0539C112.394 48.947 112.477 49.9009 112.308 50.8307Z" fill="#263238"/>
<path opacity="0.3" d="M112.308 50.8307H116.256C116.83 50.8307 117.695 53.9444 117.695 54.8531C117.695 55.7618 115.26 59.6888 114.998 59.4473C114.735 59.2058 97.3365 59.4473 94.7711 59.4473C92.2056 59.4473 80.9409 57.4711 79.4887 56.1621C78.0366 54.8531 76.6812 50.6211 76.8472 49.3248C77.0132 48.0285 82.7942 43.466 88.6028 41.6995C94.4115 39.933 104.549 40.257 106.451 40.4286C108.352 40.6002 111.506 46.783 112.066 48.0539C112.394 48.947 112.477 49.9009 112.308 50.8307Z" fill="black" fill-opacity="0.5"/>
<path d="M110.482 49.3251C110.351 50.3609 107.882 54.4658 106.879 54.5484C97.1983 55.3872 82.8841 54.326 77.9813 53.913C77.2068 52.2164 76.702 50.1639 76.8127 49.3315C76.9786 48.0288 82.7596 43.4727 88.5683 41.7062C94.3769 39.9397 104.508 40.2574 106.409 40.4353C106.983 40.4798 107.661 41.0708 108.352 41.9096C111.056 46.9486 110.6 48.2894 110.482 49.3251Z" fill="#D0D5DD"/>
<path d="M93.1253 54.8592L78.1196 54.1856C77.822 53.5665 77.5702 52.9296 77.3658 52.2793C79.5372 52.4064 89.9374 52.8194 90.7811 53.08C91.6247 53.3405 93.1253 54.8592 93.1253 54.8592Z" fill="#DBDBDB"/>
<path d="M339.039 149.769L279.265 150.754V136.323L339.039 135.332V149.769Z" fill="white"/>
<path d="M228.163 98.0502C229.172 98.0502 245.346 87.8831 246.142 86.8156C246.937 85.7481 168.001 68.5976 165.671 68.4451C163.341 68.2926 151.461 72.3911 151.792 73.2998C152.124 74.2085 163.029 87.8768 167.656 90.3105C172.282 92.7442 223.702 98.0502 228.163 98.0502Z" fill="white"/>
<path d="M246.169 86.8161C245.203 87.6505 244.162 88.4093 243.058 89.0846C238.086 92.3953 228.916 98.0443 228.163 98.0443C223.702 98.0443 172.31 92.732 167.69 90.2983C166.307 89.5739 164.364 87.8519 162.317 85.7613C157.477 80.8493 152.062 73.9294 151.82 73.294C151.495 72.3853 163.389 68.2867 165.706 68.4392C168.022 68.5917 246.999 85.7549 246.169 86.8161Z" fill="white"/>
<path d="M243.058 89.0842C238.086 92.3948 228.917 98.0439 228.163 98.0439C223.703 98.0439 172.31 92.7316 167.691 90.2979C166.307 89.5735 164.364 87.8514 162.318 85.7608C164.185 83.6448 171.895 74.9584 174.128 75.1299C198.995 76.8838 241.882 88.6521 243.058 89.0842Z" fill="#EBEBEB"/>
<path d="M179.709 83.2254C179.799 87.432 174.045 89.834 170.657 86.8982C170.11 86.4275 169.674 85.8587 169.376 85.2269C169.078 84.5952 168.924 83.914 168.924 83.2254C168.924 82.5369 169.078 81.8556 169.376 81.2239C169.674 80.5921 170.11 80.0233 170.657 79.5526C174.038 76.6105 179.799 79.0188 179.709 83.2254ZM179.709 83.2254C179.703 82.3518 179.411 81.5001 178.871 80.7815C178.33 80.0629 177.566 79.511 176.678 79.198C175.791 78.8849 174.821 78.8253 173.896 79.0269C172.971 79.2285 172.134 79.6819 171.494 80.3278C168.873 82.8696 170.802 87.3494 174.654 87.5591C175.3 87.5972 175.948 87.5136 176.557 87.3133C177.167 87.1131 177.726 86.8004 178.199 86.3946C178.672 85.9887 179.05 85.4983 179.31 84.9533C179.57 84.4083 179.705 83.8203 179.709 83.2254Z" fill="white"/>
<path d="M192.432 83.2439C192.515 86.9422 187.467 89.0836 184.459 86.5037C183.971 86.0874 183.582 85.583 183.316 85.0221C183.05 84.4612 182.912 83.8558 182.912 83.2439C182.912 82.632 183.05 82.0266 183.316 81.4657C183.582 80.9048 183.971 80.4004 184.459 79.9841C187.46 77.4042 192.515 79.552 192.432 83.2439ZM192.432 83.2439C192.246 78.2303 184.432 78.3192 184.28 83.2439C184.432 88.1749 192.246 88.2575 192.432 83.2439Z" fill="white"/>
<path d="M359.176 85.7551C358.484 86.632 367.764 95.471 368.428 95.471C369.092 95.471 379.333 91.3724 380.488 89.8537C381.643 88.335 378.171 77.8566 377.514 76.7954C376.858 75.7342 367.142 74.1138 367.266 74.3045C367.391 74.4951 360.745 83.7344 359.176 85.7551Z" fill="white"/>
<path d="M380.509 89.8526C379.862 90.4706 379.101 90.9783 378.261 91.3523C374.375 92.6994 369.161 94.4214 368.428 94.2118C365.046 93.2332 360.13 85.6969 360.13 85.6969C363.29 83.333 371.284 75.9365 371.816 75.0215C374.403 75.5425 377.196 76.2415 377.542 76.7944C378.199 77.8873 381.663 88.3339 380.509 89.8526Z" fill="#EBEBEB"/>
<path d="M378.648 82.8C378.607 88.3665 372.473 88.1314 372.259 82.8C372.466 77.4687 378.607 77.2336 378.648 82.8ZM378.648 82.8C378.434 78.3011 373.676 78.0978 373.642 82.8C373.607 87.5023 378.441 87.3053 378.648 82.8Z" fill="white"/>
<path d="M34.0144 66.9364L31.4235 66.6183C30.0456 66.4492 28.7793 67.3385 28.5953 68.6046L28.2775 70.7902C28.0934 72.0564 29.0612 73.22 30.4391 73.3891L33.0299 73.7072C34.4078 73.8764 35.6741 72.9871 35.8582 71.7209L36.176 69.5353C36.3601 68.2692 35.3923 67.1056 34.0144 66.9364Z" fill="#D0D5DD"/>
<path d="M37.8643 69.8601L27.0896 68.5373C26.711 68.4908 26.3632 68.7351 26.3126 69.083L26.1597 70.1348C26.1091 70.4827 26.375 70.8023 26.7535 70.8488L37.5283 72.1716C37.9068 72.2181 38.2547 71.9738 38.3053 71.626L38.4582 70.5741C38.5088 70.2263 38.2429 69.9066 37.8643 69.8601Z" fill="#D0D5DD"/>
<g opacity="0.2">
<path d="M37.8643 69.8601L27.0896 68.5373C26.711 68.4908 26.3632 68.7351 26.3126 69.083L26.1597 70.1348C26.1091 70.4827 26.375 70.8023 26.7535 70.8488L37.5283 72.1716C37.9068 72.2181 38.2547 71.9738 38.3053 71.626L38.4582 70.5741C38.5088 70.2263 38.2429 69.9066 37.8643 69.8601Z" fill="white"/>
</g>
<path d="M72.3635 72.8588L69.7726 72.5407C68.3947 72.3715 67.1285 73.2608 66.9444 74.527L66.6266 76.7126C66.4425 77.9787 67.4103 79.1423 68.7882 79.3115L71.3791 79.6296C72.757 79.7988 74.0232 78.9094 74.2073 77.6433L74.5251 75.4577C74.7092 74.1915 73.7414 73.0279 72.3635 72.8588Z" fill="#D0D5DD"/>
<path d="M76.2136 75.7771L65.4388 74.4543C65.0603 74.4078 64.7124 74.6521 64.6618 75L64.5089 76.0518C64.4583 76.3996 64.7242 76.7193 65.1028 76.7658L75.8775 78.0886C76.256 78.1351 76.6039 77.8908 76.6545 77.5429L76.8074 76.4911C76.858 76.1433 76.5921 75.8236 76.2136 75.7771Z" fill="#D0D5DD"/>
<g opacity="0.2">
<path d="M76.2137 75.7771L65.439 74.4543C65.0604 74.4078 64.7125 74.6521 64.662 75L64.509 76.0518C64.4585 76.3996 64.7243 76.7193 65.1029 76.7658L75.8776 78.0886C76.2562 78.1351 76.604 77.8908 76.6546 77.5429L76.8075 76.4911C76.8581 76.1433 76.5923 75.8236 76.2137 75.7771Z" fill="white"/>
</g>
</svg>
